<svg width="76" height="19" viewBox="0 0 76 19" fill="none" xmlns="http://www.w3.org/2000/svg">
<path d="M6.908 17.924C6.076 17.924 5.252 17.812 4.436 17.588C3.62 17.38 2.876 17.076 2.204 16.676L2.972 15.284C3.692 15.668 4.356 15.948 4.964 16.124C5.588 16.3 6.212 16.388 6.836 16.388C7.972 16.388 8.836 16.116 9.428 15.572C10.02 15.028 10.316 14.228 10.316 13.172V11.492C9.212 12.42 7.94 12.884 6.5 12.884C5.396 12.884 4.388 12.612 3.476 12.068C2.564 11.524 1.836 10.788 1.292 9.86C0.764001 8.916 0.500001 7.868 0.500001 6.716C0.500001 5.564 0.764001 4.524 1.292 3.596C1.836 2.652 2.564 1.908 3.476 1.364C4.388 0.819999 5.412 0.547999 6.548 0.547999C7.236 0.547999 7.9 0.667999 8.54 0.907999C9.196 1.148 9.796 1.5 10.34 1.964V0.763999H12.092V13.148C12.092 14.684 11.644 15.86 10.748 16.676C9.852 17.508 8.572 17.924 6.908 17.924ZM6.644 11.324C7.412 11.324 8.116 11.18 8.756 10.892C9.396 10.604 9.916 10.196 10.316 9.668V3.764C9.916 3.252 9.388 2.852 8.732 2.564C8.092 2.276 7.396 2.132 6.644 2.132C5.812 2.132 5.06 2.332 4.388 2.732C3.732 3.132 3.212 3.684 2.828 4.388C2.444 5.076 2.252 5.852 2.252 6.716C2.252 7.58 2.444 8.364 2.828 9.068C3.228 9.756 3.756 10.308 4.412 10.724C5.084 11.124 5.828 11.324 6.644 11.324ZM20.7065 13.028C19.5705 13.028 18.5305 12.756 17.5865 12.212C16.6585 11.652 15.9225 10.9 15.3785 9.956C14.8345 9.012 14.5625 7.956 14.5625 6.788C14.5625 5.62 14.8345 4.564 15.3785 3.62C15.9225 2.676 16.6585 1.932 17.5865 1.388C18.5305 0.827999 19.5705 0.547999 20.7065 0.547999C21.8585 0.547999 22.8985 0.827999 23.8265 1.388C24.7545 1.932 25.4905 2.676 26.0345 3.62C26.5785 4.564 26.8505 5.62 26.8505 6.788C26.8505 7.956 26.5785 9.012 26.0345 9.956C25.4905 10.9 24.7545 11.652 23.8265 12.212C22.8985 12.756 21.8585 13.028 20.7065 13.028ZM20.7065 11.444C21.5225 11.444 22.2585 11.236 22.9145 10.82C23.5865 10.404 24.1145 9.844 24.4985 9.14C24.8985 8.436 25.0985 7.652 25.0985 6.788C25.0985 5.908 24.8985 5.124 24.4985 4.436C24.1145 3.732 23.5865 3.172 22.9145 2.756C22.2585 2.34 21.5225 2.132 20.7065 2.132C19.8905 2.132 19.1465 2.34 18.4745 2.756C17.8185 3.172 17.2905 3.732 16.8905 4.436C16.5065 5.124 16.3145 5.908 16.3145 6.788C16.3145 7.652 16.5065 8.436 16.8905 9.14C17.2905 9.844 17.8185 10.404 18.4745 10.82C19.1465 11.236 19.8905 11.444 20.7065 11.444ZM34.9096 13.028C33.7736 13.028 32.7336 12.756 31.7896 12.212C30.8616 11.652 30.1256 10.9 29.5816 9.956C29.0376 9.012 28.7656 7.956 28.7656 6.788C28.7656 5.62 29.0376 4.564 29.5816 3.62C30.1256 2.676 30.8616 1.932 31.7896 1.388C32.7336 0.827999 33.7736 0.547999 34.9096 0.547999C36.0616 0.547999 37.1016 0.827999 38.0296 1.388C38.9576 1.932 39.6936 2.676 40.2376 3.62C40.7816 4.564 41.0536 5.62 41.0536 6.788C41.0536 7.956 40.7816 9.012 40.2376 9.956C39.6936 10.9 38.9576 11.652 38.0296 12.212C37.1016 12.756 36.0616 13.028 34.9096 13.028ZM34.9096 11.444C35.7256 11.444 36.4616 11.236 37.1176 10.82C37.7896 10.404 38.3176 9.844 38.7016 9.14C39.1016 8.436 39.3016 7.652 39.3016 6.788C39.3016 5.908 39.1016 5.124 38.7016 4.436C38.3176 3.732 37.7896 3.172 37.1176 2.756C36.4616 2.34 35.7256 2.132 34.9096 2.132C34.0936 2.132 33.3496 2.34 32.6776 2.756C32.0216 3.172 31.4936 3.732 31.0936 4.436C30.7096 5.124 30.5176 5.908 30.5176 6.788C30.5176 7.652 30.7096 8.436 31.0936 9.14C31.4936 9.844 32.0216 10.404 32.6776 10.82C33.3496 11.236 34.0936 11.444 34.9096 11.444ZM46.9852 12.788L41.7772 0.763999H43.7452L47.8492 10.484L51.9532 0.763999H53.8492L48.6652 12.788H46.9852ZM60.7623 13.004C59.6103 13.004 58.5623 12.732 57.6183 12.188C56.6903 11.628 55.9463 10.876 55.3863 9.932C54.8423 8.988 54.5703 7.932 54.5703 6.764C54.5703 5.612 54.8343 4.572 55.3623 3.644C55.8903 2.7 56.6023 1.956 57.4983 1.412C58.3943 0.852 59.3943 0.572 60.4983 0.572C61.5703 0.572 62.5303 0.852 63.3783 1.412C64.2423 1.956 64.9223 2.7 65.4183 3.644C65.9303 4.572 66.1863 5.612 66.1863 6.764V7.316H56.3223C56.4183 8.1 56.6663 8.804 57.0663 9.428C57.4823 10.052 58.0183 10.548 58.6743 10.916C59.3303 11.268 60.0503 11.444 60.8343 11.444C61.4583 11.444 62.0663 11.348 62.6583 11.156C63.2503 10.964 63.7463 10.692 64.1463 10.34L65.2503 11.516C64.5783 12.012 63.8743 12.388 63.1383 12.644C62.4183 12.884 61.6263 13.004 60.7623 13.004ZM56.3703 5.9H64.4103C64.3143 5.18 64.0743 4.54 63.6903 3.98C63.3223 3.404 62.8583 2.956 62.2983 2.636C61.7383 2.3 61.1223 2.132 60.4503 2.132C59.7623 2.132 59.1303 2.292 58.5543 2.612C57.9783 2.932 57.4983 3.38 57.1143 3.956C56.7303 4.516 56.4823 5.164 56.3703 5.9ZM68.6692 12.788V0.763999H70.4452V2.468C70.8132 1.844 71.2772 1.364 71.8372 1.028C72.4132 0.676 73.0692 0.5 73.8052 0.5C74.2212 0.5 74.5972 0.556 74.9332 0.668V2.3C74.7252 2.22 74.5172 2.164 74.3092 2.132C74.1012 2.1 73.8932 2.084 73.6852 2.084C72.9492 2.084 72.3012 2.3 71.7412 2.732C71.1972 3.148 70.7652 3.756 70.4452 4.556V12.788H68.6692Z" fill="#151414"/>
<path d="M4.436 17.588L4.56838 17.1058L4.5595 17.1035L4.436 17.588ZM2.204 16.676L1.76621 16.4345L1.53246 16.8581L1.94826 17.1056L2.204 16.676ZM2.972 15.284L3.2073 14.8428L2.77234 14.6108L2.53421 15.0425L2.972 15.284ZM4.964 16.124L4.82497 16.6043L4.82827 16.6052L4.964 16.124ZM10.316 11.492H10.816V10.4185L9.99428 11.1093L10.316 11.492ZM3.476 12.068L3.21986 12.4974H3.21986L3.476 12.068ZM1.292 9.86L0.855533 10.1041L0.860652 10.1129L1.292 9.86ZM1.292 3.596L0.85878 3.34635L0.857419 3.34874L1.292 3.596ZM3.476 1.364L3.73214 1.79341H3.73214L3.476 1.364ZM8.54 0.907999L8.36443 1.37618L8.36821 1.37756L8.54 0.907999ZM10.34 1.964L10.0155 2.34442L10.84 3.04764V1.964H10.34ZM10.34 0.763999V0.263999H9.84V0.763999H10.34ZM12.092 0.763999H12.592V0.263999H12.092V0.763999ZM10.748 16.676L10.4113 16.3063L10.4078 16.3096L10.748 16.676ZM8.756 10.892L8.55082 10.436V10.436L8.756 10.892ZM10.316 9.668L10.7145 9.96993L10.816 9.83601V9.668H10.316ZM10.316 3.764H10.816V3.59184L10.71 3.45618L10.316 3.764ZM8.732 2.564L8.52681 3.01998L8.53101 3.02182L8.732 2.564ZM4.388 2.732L4.13224 2.30233L4.1277 2.3051L4.388 2.732ZM2.828 4.388L3.26462 4.63169L3.26695 4.62742L2.828 4.388ZM2.828 9.068L2.38889 9.30752L2.39575 9.31931L2.828 9.068ZM4.412 10.724L4.14412 11.1464L4.15626 11.1536L4.412 10.724ZM6.908 17.924V17.424C6.12148 17.424 5.34198 17.3182 4.56836 17.1058L4.436 17.588L4.30364 18.0702C5.16202 18.3058 6.03052 18.424 6.908 18.424V17.924ZM4.436 17.588L4.5595 17.1035C3.78643 16.9064 3.08748 16.62 2.45974 16.2464L2.204 16.676L1.94826 17.1056C2.66452 17.532 3.45357 17.8536 4.3125 18.0725L4.436 17.588ZM2.204 16.676L2.64179 16.9175L3.40979 15.5255L2.972 15.284L2.53421 15.0425L1.76621 16.4345L2.204 16.676ZM2.972 15.284L2.73671 15.7252C3.47905 16.1211 4.17565 16.4163 4.82497 16.6043L4.964 16.124L5.10303 15.6437C4.53635 15.4797 3.90495 15.2149 3.2073 14.8428L2.972 15.284ZM4.964 16.124L4.82827 16.6052C5.49471 16.7932 6.16435 16.888 6.836 16.888V16.388V15.888C6.25966 15.888 5.68129 15.8068 5.09973 15.6428L4.964 16.124ZM6.836 16.388V16.888C8.04563 16.888 9.04999 16.5984 9.76631 15.9402L9.428 15.572L9.08969 15.2038C8.62202 15.6336 7.89838 15.888 6.836 15.888V16.388ZM9.428 15.572L9.76631 15.9402C10.491 15.2742 10.816 14.3218 10.816 13.172H10.316H9.816C9.816 14.1342 9.54896 14.7818 9.08969 15.2038L9.428 15.572ZM10.316 13.172H10.816V11.492H10.316H9.816V13.172H10.316ZM10.316 11.492L9.99428 11.1093C8.98022 11.9617 7.8221 12.384 6.5 12.384V12.884V13.384C8.0579 13.384 9.44378 12.8783 10.6377 11.8747L10.316 11.492ZM6.5 12.884V12.384C5.48245 12.384 4.56354 12.1345 3.73214 11.6386L3.476 12.068L3.21986 12.4974C4.21246 13.0895 5.30956 13.384 6.5 13.384V12.884ZM3.476 12.068L3.73214 11.6386C2.89346 11.1383 2.22533 10.4635 1.72335 9.60714L1.292 9.86L0.860652 10.1129C1.44667 11.1125 2.23454 11.9097 3.21986 12.4974L3.476 12.068ZM1.292 9.86L1.72838 9.61592C1.24482 8.75137 1 7.78829 1 6.716H0.500001H9.83477e-07C9.83477e-07 7.94771 0.283187 9.08063 0.855622 10.1041L1.292 9.86ZM0.500001 6.716H1C1 5.64364 1.24482 4.69 1.72658 3.84326L1.292 3.596L0.857419 3.34874C0.283183 4.358 9.83477e-07 5.48436 9.83477e-07 6.716H0.500001ZM1.292 3.596L1.72522 3.84565C2.22769 2.97371 2.89553 2.29244 3.73214 1.79341L3.476 1.364L3.21986 0.93459C2.23247 1.52356 1.44431 2.33029 0.858786 3.34635L1.292 3.596ZM3.476 1.364L3.73214 1.79341C4.56127 1.29884 5.49565 1.048 6.548 1.048V0.547998V0.0479984C5.32835 0.0479984 4.21474 0.341156 3.21986 0.93459L3.476 1.364ZM6.548 0.547998V1.048C7.17645 1.048 7.78095 1.15736 8.36444 1.37616L8.54 0.907999L8.71556 0.439835C8.01905 0.178642 7.29556 0.0479984 6.548 0.0479984V0.547998ZM8.54 0.907999L8.36821 1.37756C8.9671 1.59667 9.51564 1.91804 10.0155 2.34442L10.34 1.964L10.6645 1.58358C10.0764 1.08196 9.4249 0.699332 8.71179 0.438437L8.54 0.907999ZM10.34 1.964H10.84V0.763999H10.34H9.84V1.964H10.34ZM10.34 0.763999V1.264H12.092V0.763999V0.263999H10.34V0.763999ZM12.092 0.763999H11.592V13.148H12.092H12.592V0.763999H12.092ZM12.092 13.148H11.592C11.592 14.5835 11.1769 15.6091 10.4113 16.3063L10.748 16.676L11.0847 17.0457C12.1111 16.1109 12.592 14.7846 12.592 13.148H12.092ZM10.748 16.676L10.4078 16.3096C9.63331 17.0288 8.49199 17.424 6.908 17.424V17.924V18.424C8.65201 18.424 10.0707 17.9872 11.0882 17.0424L10.748 16.676ZM6.644 11.324V11.824C7.476 11.824 8.2508 11.6676 8.96118 11.348L8.756 10.892L8.55082 10.436C7.9812 10.6924 7.348 10.824 6.644 10.824V11.324ZM8.756 10.892L8.96118 11.348C9.67282 11.0277 10.261 10.5686 10.7145 9.96993L10.316 9.668L9.91746 9.36607C9.57102 9.82337 9.11918 10.1803 8.55082 10.436L8.756 10.892ZM10.316 9.668H10.816V3.764H10.316H9.816V9.668H10.316ZM10.316 3.764L10.71 3.45618C10.254 2.87247 9.65682 2.42395 8.933 2.10618L8.732 2.564L8.53101 3.02182C9.11919 3.28005 9.57801 3.63153 9.92199 4.07182L10.316 3.764ZM8.732 2.564L8.93718 2.10804C8.22815 1.78897 7.4616 1.632 6.644 1.632V2.132V2.632C7.3304 2.632 7.95586 2.76303 8.52682 3.01996L8.732 2.564ZM6.644 2.132V1.632C5.72795 1.632 4.8866 1.85334 4.13226 2.30235L4.388 2.732L4.64374 3.16165C5.2334 2.81066 5.89605 2.632 6.644 2.632V2.132ZM4.388 2.732L4.1277 2.3051C3.39338 2.75286 2.81319 3.37099 2.38905 4.14857L2.828 4.388L3.26695 4.62742C3.61081 3.99701 4.07063 3.51114 4.6483 3.1589L4.388 2.732ZM2.828 4.388L2.3914 4.14432C1.9619 4.91385 1.752 5.77514 1.752 6.716H2.252H2.752C2.752 5.92886 2.92611 5.23815 3.2646 4.63168L2.828 4.388ZM2.252 6.716H1.752C1.752 7.657 1.96192 8.52435 2.38905 9.30743L2.828 9.068L3.26695 8.82857C2.92608 8.20365 2.752 7.503 2.752 6.716H2.252ZM2.828 9.068L2.39575 9.31931C2.83504 10.0749 3.41878 10.6862 4.14423 11.1463L4.412 10.724L4.67977 10.3017C4.09322 9.92979 3.62096 9.4371 3.26025 8.81669L2.828 9.068ZM4.412 10.724L4.15626 11.1536C4.90905 11.6017 5.74206 11.824 6.644 11.824V11.324V10.824C5.91394 10.824 5.25895 10.6463 4.66774 10.2944L4.412 10.724ZM17.5865 12.212L17.3281 12.6402L17.3369 12.6452L17.5865 12.212ZM15.3785 9.956L15.8117 9.70635V9.70635L15.3785 9.956ZM15.3785 3.62L14.9453 3.37035V3.37035L15.3785 3.62ZM17.5865 1.388L17.8394 1.81935L17.8416 1.81803L17.5865 1.388ZM23.8265 1.388L23.5681 1.81613L23.5736 1.81935L23.8265 1.388ZM26.0345 3.62L25.6013 3.86965V3.86965L26.0345 3.62ZM26.0345 9.956L25.6013 9.70635V9.70635L26.0345 9.956ZM23.8265 12.212L24.0794 12.6434L24.0848 12.6401L23.8265 12.212ZM22.9145 10.82L22.6513 10.3948L22.6467 10.3977L22.9145 10.82ZM24.4985 9.14L24.0637 8.89296L24.0596 8.90057L24.4985 9.14ZM24.4985 4.436L24.0594 4.67552L24.0662 4.68731L24.4985 4.436ZM22.9145 2.756L22.6467 3.17828L22.6513 3.18113L22.9145 2.756ZM18.4745 2.756L18.2113 2.33084L18.2067 2.33375L18.4745 2.756ZM16.8905 4.436L16.4558 4.18899L16.4539 4.19232L16.8905 4.436ZM16.8905 9.14L16.4515 9.37946L16.4558 9.387L16.8905 9.14ZM18.4745 10.82L18.2067 11.2423L18.2113 11.2451L18.4745 10.82ZM20.7065 13.028V12.528C19.6542 12.528 18.7009 12.2771 17.8362 11.7788L17.5865 12.212L17.3369 12.6452C18.3601 13.2349 19.4868 13.528 20.7065 13.528V13.028ZM17.5865 12.212L17.8448 11.7839C16.9897 11.2679 16.3137 10.5774 15.8117 9.70635L15.3785 9.956L14.9453 10.2056C15.5313 11.2226 16.3273 12.0361 17.3282 12.6401L17.5865 12.212ZM15.3785 9.956L15.8117 9.70635C15.3146 8.84374 15.0625 7.8749 15.0625 6.788H14.5625H14.0625C14.0625 8.0371 14.3544 9.18026 14.9453 10.2056L15.3785 9.956ZM14.5625 6.788H15.0625C15.0625 5.7011 15.3146 4.73226 15.8117 3.86965L15.3785 3.62L14.9453 3.37035C14.3544 4.39574 14.0625 5.5389 14.0625 6.788H14.5625ZM15.3785 3.62L15.8117 3.86965C16.313 2.99983 16.9872 2.31887 17.8394 1.81935L17.5865 1.388L17.3336 0.956651C16.3298 1.54513 15.532 2.35217 14.9453 3.37035L15.3785 3.62ZM17.5865 1.388L17.8416 1.81803C18.7056 1.30548 19.657 1.048 20.7065 1.048V0.547998V0.0479984C19.484 0.0479984 18.3554 0.35052 17.3314 0.957973L17.5865 1.388ZM20.7065 0.547998V1.048C21.7734 1.048 22.7231 1.30612 23.5682 1.81609L23.8265 1.388L24.0848 0.959906C23.0739 0.349876 21.9436 0.0479984 20.7065 0.0479984V0.547998ZM23.8265 1.388L23.5736 1.81935C24.4258 2.31887 25.1 2.99983 25.6013 3.86965L26.0345 3.62L26.4677 3.37035C25.881 2.35217 25.0832 1.54513 24.0794 0.956651L23.8265 1.388ZM26.0345 3.62L25.6013 3.86965C26.0984 4.73226 26.3505 5.7011 26.3505 6.788H26.8505H27.3505C27.3505 5.5389 27.0586 4.39574 26.4677 3.37035L26.0345 3.62ZM26.8505 6.788H26.3505C26.3505 7.8749 26.0984 8.84374 25.6013 9.70635L26.0345 9.956L26.4677 10.2056C27.0586 9.18026 27.3505 8.0371 27.3505 6.788H26.8505ZM26.0345 9.956L25.6013 9.70635C25.0993 10.5774 24.4233 11.2679 23.5682 11.7839L23.8265 12.212L24.0848 12.6401C25.0857 12.0361 25.8817 11.2226 26.4677 10.2056L26.0345 9.956ZM23.8265 12.212L23.5736 11.7807C22.7278 12.2765 21.7761 12.528 20.7065 12.528V13.028V13.528C21.9409 13.528 23.0692 13.2355 24.0794 12.6433L23.8265 12.212ZM20.7065 11.444V11.944C21.6123 11.944 22.4421 11.7117 23.1823 11.2423L22.9145 10.82L22.6467 10.3977C22.0749 10.7603 21.4327 10.944 20.7065 10.944V11.444ZM22.9145 10.82L23.1777 11.2451C23.9245 10.7828 24.5126 10.1583 24.9375 9.37943L24.4985 9.14L24.0596 8.90057C23.7164 9.52965 23.2485 10.0252 22.6513 10.3949L22.9145 10.82ZM24.4985 9.14L24.9332 9.387C25.3789 8.60266 25.5985 7.73259 25.5985 6.788H25.0985H24.5985C24.5985 7.57141 24.4181 8.26934 24.0638 8.893L24.4985 9.14ZM25.0985 6.788H25.5985C25.5985 5.8293 25.3797 4.95689 24.9308 4.18469L24.4985 4.436L24.0662 4.68731C24.4173 5.29111 24.5985 5.9867 24.5985 6.788H25.0985ZM24.4985 4.436L24.9375 4.19657C24.5126 3.41765 23.9245 2.79318 23.1777 2.33087L22.9145 2.756L22.6513 3.18113C23.2485 3.55082 23.7164 4.04635 24.0596 4.67542L24.4985 4.436ZM22.9145 2.756L23.1823 2.33375C22.4421 1.86434 21.6123 1.632 20.7065 1.632V2.132V2.632C21.4327 2.632 22.0749 2.81566 22.6467 3.17825L22.9145 2.756ZM20.7065 2.132V1.632C19.8007 1.632 18.965 1.86428 18.2113 2.33087L18.4745 2.756L18.7377 3.18113C19.328 2.81572 19.9803 2.632 20.7065 2.632V2.132ZM18.4745 2.756L18.2067 2.33375C17.4786 2.79549 16.8945 3.41691 16.4558 4.189L16.8905 4.436L17.3252 4.683C17.6865 4.04709 18.1584 3.54851 18.7423 3.17825L18.4745 2.756ZM16.8905 4.436L16.4539 4.19232C16.0236 4.96321 15.8145 5.83286 15.8145 6.788H16.3145H16.8145C16.8145 5.98314 16.9894 5.28479 17.3271 4.67968L16.8905 4.436ZM16.3145 6.788H15.8145C15.8145 7.729 16.0244 8.59635 16.4516 9.37943L16.8905 9.14L17.3294 8.90057C16.9886 8.27565 16.8145 7.575 16.8145 6.788H16.3145ZM16.8905 9.14L16.4558 9.387C16.8945 10.1591 17.4786 10.7805 18.2067 11.2423L18.4745 10.82L18.7423 10.3977C18.1584 10.0275 17.6865 9.52891 17.3252 8.893L16.8905 9.14ZM18.4745 10.82L18.2113 11.2451C18.965 11.7117 19.8007 11.944 20.7065 11.944V11.444V10.944C19.9803 10.944 19.328 10.7603 18.7377 10.3949L18.4745 10.82ZM31.7896 12.212L31.5312 12.6402L31.54 12.6452L31.7896 12.212ZM29.5816 9.956L30.0148 9.70635V9.70635L29.5816 9.956ZM29.5816 3.62L29.1484 3.37035V3.37035L29.5816 3.62ZM31.7896 1.388L32.0425 1.81935L32.0447 1.81803L31.7896 1.388ZM38.0296 1.388L37.7713 1.81613L37.7768 1.81935L38.0296 1.388ZM40.2376 3.62L39.8044 3.86965V3.86965L40.2376 3.62ZM40.2376 9.956L39.8044 9.70635V9.70635L40.2376 9.956ZM38.0296 12.212L38.2825 12.6434L38.288 12.6401L38.0296 12.212ZM37.1176 10.82L36.8544 10.3948L36.8499 10.3977L37.1176 10.82ZM38.7016 9.14L38.2668 8.89296L38.2627 8.90057L38.7016 9.14ZM38.7016 4.436L38.2625 4.67552L38.2694 4.68731L38.7016 4.436ZM37.1176 2.756L36.8498 3.17828L36.8545 3.18113L37.1176 2.756ZM32.6776 2.756L32.4144 2.33084L32.4099 2.33375L32.6776 2.756ZM31.0936 4.436L30.6589 4.18899L30.657 4.19232L31.0936 4.436ZM31.0936 9.14L30.6546 9.37946L30.6589 9.387L31.0936 9.14ZM32.6776 10.82L32.4098 11.2423L32.4144 11.2451L32.6776 10.82ZM34.9096 13.028V12.528C33.8574 12.528 32.904 12.2771 32.0393 11.7788L31.7896 12.212L31.54 12.6452C32.5632 13.2349 33.6899 13.528 34.9096 13.528V13.028ZM31.7896 12.212L32.048 11.7839C31.1928 11.2679 30.5168 10.5774 30.0148 9.70635L29.5816 9.956L29.1484 10.2056C29.7344 11.2226 30.5304 12.0361 31.5313 12.6401L31.7896 12.212ZM29.5816 9.956L30.0148 9.70635C29.5177 8.84374 29.2656 7.8749 29.2656 6.788H28.7656H28.2656C28.2656 8.0371 28.5575 9.18026 29.1484 10.2056L29.5816 9.956ZM28.7656 6.788H29.2656C29.2656 5.7011 29.5177 4.73226 30.0148 3.86965L29.5816 3.62L29.1484 3.37035C28.5575 4.39574 28.2656 5.5389 28.2656 6.788H28.7656ZM29.5816 3.62L30.0148 3.86965C30.5161 2.99983 31.1904 2.31887 32.0425 1.81935L31.7896 1.388L31.5368 0.956651C30.5329 1.54513 29.7352 2.35217 29.1484 3.37035L29.5816 3.62ZM31.7896 1.388L32.0447 1.81803C32.9087 1.30548 33.8601 1.048 34.9096 1.048V0.547998V0.0479984C33.6871 0.0479984 32.5585 0.35052 31.5345 0.957973L31.7896 1.388ZM34.9096 0.547998V1.048C35.9765 1.048 36.9262 1.30612 37.7713 1.81609L38.0296 1.388L38.288 0.959906C37.2771 0.349876 36.1467 0.0479984 34.9096 0.0479984V0.547998ZM38.0296 1.388L37.7768 1.81935C38.6289 2.31887 39.3032 2.99983 39.8044 3.86965L40.2376 3.62L40.6708 3.37035C40.0841 2.35217 39.2864 1.54513 38.2825 0.956651L38.0296 1.388ZM40.2376 3.62L39.8044 3.86965C40.3015 4.73226 40.5536 5.7011 40.5536 6.788H41.0536H41.5536C41.5536 5.5389 41.2617 4.39574 40.6708 3.37035L40.2376 3.62ZM41.0536 6.788H40.5536C40.5536 7.8749 40.3015 8.84374 39.8044 9.70635L40.2376 9.956L40.6708 10.2056C41.2617 9.18026 41.5536 8.0371 41.5536 6.788H41.0536ZM40.2376 9.956L39.8044 9.70635C39.3024 10.5774 38.6264 11.2679 37.7713 11.7839L38.0296 12.212L38.288 12.6401C39.2888 12.0361 40.0848 11.2226 40.6708 10.2056L40.2376 9.956ZM38.0296 12.212L37.7768 11.7807C36.9309 12.2765 35.9793 12.528 34.9096 12.528V13.028V13.528C36.144 13.528 37.2724 13.2355 38.2825 12.6433L38.0296 12.212ZM34.9096 11.444V11.944C35.8154 11.944 36.6452 11.7117 37.3854 11.2423L37.1176 10.82L36.8499 10.3977C36.2781 10.7603 35.6358 10.944 34.9096 10.944V11.444ZM37.1176 10.82L37.3808 11.2451C38.1276 10.7828 38.7157 10.1583 39.1406 9.37943L38.7016 9.14L38.2627 8.90057C37.9195 9.52965 37.4516 10.0252 36.8545 10.3949L37.1176 10.82ZM38.7016 9.14L39.1364 9.387C39.582 8.60266 39.8016 7.73259 39.8016 6.788H39.3016H38.8016C38.8016 7.57141 38.6212 8.26934 38.2669 8.893L38.7016 9.14ZM39.3016 6.788H39.8016C39.8016 5.8293 39.5828 4.95689 39.1339 4.18469L38.7016 4.436L38.2694 4.68731C38.6204 5.29111 38.8016 5.9867 38.8016 6.788H39.3016ZM38.7016 4.436L39.1406 4.19657C38.7157 3.41765 38.1276 2.79318 37.3808 2.33087L37.1176 2.756L36.8545 3.18113C37.4516 3.55082 37.9195 4.04635 38.2627 4.67542L38.7016 4.436ZM37.1176 2.756L37.3854 2.33375C36.6452 1.86434 35.8154 1.632 34.9096 1.632V2.132V2.632C35.6358 2.632 36.2781 2.81566 36.8499 3.17825L37.1176 2.756ZM34.9096 2.132V1.632C34.0038 1.632 33.1682 1.86428 32.4144 2.33087L32.6776 2.756L32.9408 3.18113C33.5311 2.81572 34.1834 2.632 34.9096 2.632V2.132ZM32.6776 2.756L32.4099 2.33375C31.6817 2.79549 31.0976 3.41691 30.6589 4.189L31.0936 4.436L31.5284 4.683C31.8897 4.04709 32.3615 3.54851 32.9454 3.17825L32.6776 2.756ZM31.0936 4.436L30.657 4.19232C30.2268 4.96321 30.0176 5.83286 30.0176 6.788H30.5176H31.0176C31.0176 5.98314 31.1925 5.28479 31.5302 4.67968L31.0936 4.436ZM30.5176 6.788H30.0176C30.0176 7.729 30.2275 8.59635 30.6547 9.37943L31.0936 9.14L31.5326 8.90057C31.1917 8.27565 31.0176 7.575 31.0176 6.788H30.5176ZM31.0936 9.14L30.6589 9.387C31.0976 10.1591 31.6817 10.7805 32.4099 11.2423L32.6776 10.82L32.9454 10.3977C32.3615 10.0275 31.8897 9.52891 31.5284 8.893L31.0936 9.14ZM32.6776 10.82L32.4144 11.2451C33.1682 11.7117 34.0038 11.944 34.9096 11.944V11.444V10.944C34.1834 10.944 33.5311 10.7603 32.9408 10.3949L32.6776 10.82ZM46.9852 12.788L46.5264 12.9867L46.6569 13.288H46.9852V12.788ZM41.7772 0.763999V0.263999H41.0157L41.3184 0.962726L41.7772 0.763999ZM43.7452 0.763999L44.2058 0.569513L44.0768 0.263999H43.7452V0.763999ZM47.8492 10.484L47.3886 10.6785L47.8492 11.7694L48.3098 10.6785L47.8492 10.484ZM51.9532 0.763999V0.263999H51.6216L51.4926 0.569513L51.9532 0.763999ZM53.8492 0.763999L54.3083 0.961953L54.6092 0.263999H53.8492V0.763999ZM48.6652 12.788V13.288H48.9941L49.1243 12.986L48.6652 12.788ZM46.9852 12.788L47.444 12.5893L42.236 0.565272L41.7772 0.763999L41.3184 0.962726L46.5264 12.9867L46.9852 12.788ZM41.7772 0.763999V1.264H43.7452V0.763999V0.263999H41.7772V0.763999ZM43.7452 0.763999L43.2846 0.958485L47.3886 10.6785L47.8492 10.484L48.3098 10.2895L44.2058 0.569513L43.7452 0.763999ZM47.8492 10.484L48.3098 10.6785L52.4138 0.958485L51.9532 0.763999L51.4926 0.569513L47.3886 10.2895L47.8492 10.484ZM51.9532 0.763999V1.264H53.8492V0.763999V0.263999H51.9532V0.763999ZM53.8492 0.763999L53.39 0.566045L48.206 12.59L48.6652 12.788L49.1243 12.986L54.3083 0.961953L53.8492 0.763999ZM48.6652 12.788V12.288H46.9852V12.788V13.288H48.6652V12.788ZM57.6183 12.188L57.3599 12.6162L57.3687 12.6212L57.6183 12.188ZM55.3863 9.932L54.9531 10.1817L54.9563 10.1871L55.3863 9.932ZM55.3623 3.644L55.7969 3.89127L55.7987 3.88807L55.3623 3.644ZM57.4983 1.412L57.7578 1.83943L57.7633 1.836L57.4983 1.412ZM63.3783 1.412L63.1027 1.82933L63.1119 1.83512L63.3783 1.412ZM65.4183 3.644L64.9756 3.87661L64.9805 3.88554L65.4183 3.644ZM66.1863 7.316V7.816H66.6863V7.316H66.1863ZM56.3223 7.316V6.816H55.7574L55.826 7.37677L56.3223 7.316ZM57.0663 9.428L56.6453 9.69788L56.6503 9.70535L57.0663 9.428ZM58.6743 10.916L58.4296 11.3521L58.4379 11.3566L58.6743 10.916ZM62.6583 11.156L62.5041 10.6804H62.5041L62.6583 11.156ZM64.1463 10.34L64.5108 9.99778L64.1795 9.64479L63.816 9.96464L64.1463 10.34ZM65.2503 11.516L65.5472 11.9183L66 11.5841L65.6149 11.1738L65.2503 11.516ZM63.1383 12.644L63.2964 13.1184L63.3026 13.1162L63.1383 12.644ZM56.3703 5.9L55.876 5.82478L55.7885 6.4H56.3703V5.9ZM64.4103 5.9V6.4H64.9814L64.9059 5.83392L64.4103 5.9ZM63.6903 3.98L63.269 4.24919L63.2733 4.25605L63.278 4.26276L63.6903 3.98ZM62.2983 2.636L62.041 3.06484L62.0502 3.07012L62.2983 2.636ZM58.5543 2.612L58.7971 3.04908V3.04908L58.5543 2.612ZM57.1143 3.956L57.5267 4.23879L57.5303 4.23335L57.1143 3.956ZM60.7623 13.004V12.504C59.6927 12.504 58.7316 12.2525 57.868 11.7548L57.6183 12.188L57.3687 12.6212C58.393 13.2115 59.5279 13.504 60.7623 13.504V13.004ZM57.6183 12.188L57.8766 11.7599C57.0202 11.2431 56.3348 10.5509 55.8163 9.6769L55.3863 9.932L54.9563 10.1871C55.5578 11.2011 56.3604 12.0129 57.36 12.6161L57.6183 12.188ZM55.3863 9.932L55.8195 9.68235C55.3224 8.81974 55.0703 7.8509 55.0703 6.764H54.5703H54.0703C54.0703 8.0131 54.3622 9.15626 54.9531 10.1817L55.3863 9.932ZM54.5703 6.764H55.0703C55.0703 5.69164 55.3151 4.738 55.7969 3.89126L55.3623 3.644L54.9277 3.39674C54.3535 4.406 54.0703 5.53236 54.0703 6.764H54.5703ZM55.3623 3.644L55.7987 3.88807C56.2859 3.01692 56.938 2.33712 57.7578 1.83939L57.4983 1.412L57.2388 0.984606C56.2666 1.57488 55.4947 2.38308 54.9259 3.39992L55.3623 3.644ZM57.4983 1.412L57.7633 1.836C58.5762 1.32795 59.4836 1.072 60.4983 1.072V0.572001V0.0720005C59.305 0.0720005 58.2124 0.376047 57.2333 0.988L57.4983 1.412ZM60.4983 0.572001V1.072C61.478 1.072 62.3411 1.32626 63.1028 1.82923L63.3783 1.412L63.6538 0.994767C62.7195 0.377744 61.6626 0.0720005 60.4983 0.0720005V0.572001ZM63.3783 1.412L63.1119 1.83512C63.898 2.33009 64.5187 3.00688 64.9757 3.87656L65.4183 3.644L65.8609 3.41144C65.3259 2.39312 64.5866 1.58191 63.6447 0.988883L63.3783 1.412ZM65.4183 3.644L64.9805 3.88554C65.4482 4.73324 65.6863 5.68894 65.6863 6.764H66.1863H66.6863C66.6863 5.53506 66.4124 4.41076 65.8561 3.40246L65.4183 3.644ZM66.1863 6.764H65.6863V7.316H66.1863H66.6863V6.764H66.1863ZM66.1863 7.316V6.816H56.3223V7.316V7.816H66.1863V7.316ZM56.3223 7.316L55.826 7.37677C55.9305 8.23023 56.2023 9.00658 56.6454 9.69783L57.0663 9.428L57.4873 9.15817C57.1304 8.60142 56.9061 7.96977 56.8186 7.25523L56.3223 7.316ZM57.0663 9.428L56.6503 9.70535C57.1102 10.3953 57.705 10.9456 58.4297 11.3521L58.6743 10.916L58.9189 10.4799C58.3316 10.1504 57.8544 9.70875 57.4823 9.15065L57.0663 9.428ZM58.6743 10.916L58.4379 11.3566C59.1705 11.7497 59.9723 11.944 60.8343 11.944V11.444V10.944C60.1283 10.944 59.4901 10.7863 58.9107 10.4754L58.6743 10.916ZM60.8343 11.444V11.944C61.5106 11.944 62.1706 11.8398 62.8126 11.6316L62.6583 11.156L62.5041 10.6804C61.962 10.8562 61.4061 10.944 60.8343 10.944V11.444ZM62.6583 11.156L62.8126 11.6316C63.4587 11.4221 64.0175 11.1194 64.4766 10.7154L64.1463 10.34L63.816 9.96464C63.4751 10.2646 63.0419 10.5059 62.5041 10.6804L62.6583 11.156ZM64.1463 10.34L63.7818 10.6822L64.8858 11.8582L65.2503 11.516L65.6149 11.1738L64.5108 9.99778L64.1463 10.34ZM65.2503 11.516L64.9534 11.1137C64.3189 11.582 63.6593 11.9334 62.9741 12.1718L63.1383 12.644L63.3026 13.1162C64.0894 12.8426 64.8377 12.442 65.5472 11.9183L65.2503 11.516ZM63.1383 12.644L62.9802 12.1697C62.3177 12.3905 61.5799 12.504 60.7623 12.504V13.004V13.504C61.6727 13.504 62.5189 13.3775 63.2964 13.1183L63.1383 12.644ZM56.3703 5.9V6.4H64.4103V5.9V5.4H56.3703V5.9ZM64.4103 5.9L64.9059 5.83392C64.8003 5.04172 64.5341 4.3264 64.1027 3.69724L63.6903 3.98L63.278 4.26276C63.6145 4.7536 63.8283 5.31828 63.9147 5.96608L64.4103 5.9ZM63.6903 3.98L64.1117 3.7108C63.7028 3.07081 63.1808 2.56442 62.5464 2.20188L62.2983 2.636L62.0502 3.07012C62.5358 3.34758 62.9418 3.73719 63.269 4.24919L63.6903 3.98ZM62.2983 2.636L62.5556 2.20725C61.9155 1.82323 61.2102 1.632 60.4503 1.632V2.132V2.632C61.0345 2.632 61.5611 2.77677 62.0411 3.06475L62.2983 2.636ZM60.4503 2.132V1.632C59.6812 1.632 58.9651 1.8118 58.3115 2.17492L58.5543 2.612L58.7971 3.04908C59.2955 2.77219 59.8434 2.632 60.4503 2.632V2.132ZM58.5543 2.612L58.3115 2.17492C57.6623 2.53557 57.1242 3.03983 56.6983 3.67865L57.1143 3.956L57.5303 4.23335C57.8725 3.72017 58.2943 3.32842 58.7971 3.04908L58.5543 2.612ZM57.1143 3.956L56.702 3.67323C56.2714 4.30116 55.9982 5.02159 55.876 5.82478L56.3703 5.9L56.8646 5.97522C56.9664 5.30641 57.1893 4.73084 57.5267 4.23876L57.1143 3.956ZM68.6692 12.788H68.1692V13.288H68.6692V12.788ZM68.6692 0.763999V0.263999H68.1692V0.763999H68.6692ZM70.4452 0.763999H70.9452V0.263999H70.4452V0.763999ZM70.4452 2.468H69.9452V4.30011L70.8759 2.72199L70.4452 2.468ZM71.8372 1.028L72.0944 1.45676L72.0979 1.45464L71.8372 1.028ZM74.9332 0.668H75.4332V0.307621L75.0913 0.193659L74.9332 0.668ZM74.9332 2.3L74.7537 2.76667L75.4332 3.02802V2.3H74.9332ZM74.3092 2.132L74.3852 1.63781V1.63781L74.3092 2.132ZM71.7412 2.732L72.0449 3.12918L72.0466 3.12789L71.7412 2.732ZM70.4452 4.556L69.9809 4.3703L69.9452 4.45971V4.556H70.4452ZM70.4452 12.788V13.288H70.9452V12.788H70.4452ZM68.6692 12.788H69.1692V0.763999H68.6692H68.1692V12.788H68.6692ZM68.6692 0.763999V1.264H70.4452V0.763999V0.263999H68.6692V0.763999ZM70.4452 0.763999H69.9452V2.468H70.4452H70.9452V0.763999H70.4452ZM70.4452 2.468L70.8759 2.72199C71.2062 2.16179 71.6135 1.74533 72.0944 1.45675L71.8372 1.028L71.5799 0.599254C70.9409 0.982675 70.4201 1.52621 70.0145 2.21401L70.4452 2.468ZM71.8372 1.028L72.0979 1.45464C72.5884 1.15491 73.1526 1 73.8052 1V0.5V0C72.9858 0 72.238 0.197089 71.5765 0.601359L71.8372 1.028ZM73.8052 0.5V1C74.1766 1 74.4981 1.05001 74.7751 1.14234L74.9332 0.668L75.0913 0.193659C74.6963 0.0619936 74.2658 0 73.8052 0V0.5ZM74.9332 0.668H74.4332V2.3H74.9332H75.4332V0.668H74.9332ZM74.9332 2.3L75.1127 1.83333C74.8732 1.74123 74.6306 1.67557 74.3852 1.63781L74.3092 2.132L74.2332 2.62619C74.4038 2.65243 74.5771 2.69877 74.7537 2.76667L74.9332 2.3ZM74.3092 2.132L74.3852 1.63781C74.1524 1.60199 73.9189 1.584 73.6852 1.584V2.084V2.584C73.8674 2.584 74.05 2.59801 74.2332 2.62619L74.3092 2.132ZM73.6852 2.084V1.584C72.8435 1.584 72.087 1.83372 71.4358 2.33611L71.7412 2.732L72.0466 3.12789C72.5153 2.76628 73.0549 2.584 73.6852 2.584V2.084ZM71.7412 2.732L71.4375 2.33482C70.8056 2.81802 70.3259 3.50799 69.9809 4.3703L70.4452 4.556L70.9094 4.74169C71.2045 4.00401 71.5888 3.47797 72.0449 3.12918L71.7412 2.732ZM70.4452 4.556H69.9452V12.788H70.4452H70.9452V4.556H70.4452ZM70.4452 12.788V12.288H68.6692V12.788V13.288H70.4452V12.788Z" fill="black"/>
</svg>
